{
	"asset":{
		"generator":"Khronos glTF Blender I/O v4.1.63",
		"version":"2.0"
	},
	"scene":0,
	"scenes":[
		{
			"name":"Scene",
			"nodes":[
				0
			]
		}
	],
	"nodes":[
		{
			"mesh":0,
			"name":"DeadTree_4"
		}
	],
	"materials":[
		{
			"doubleSided":true,
			"name":"Bark_DeadTree.004",
			"normalTexture":{
				"index":0
			},
			"pbrMetallicRoughness":{
				"baseColorTexture":{
					"index":1
				},
				"metallicFactor":0
			}
		}
	],
	"meshes":[
		{
			"name":"tree.018",
			"primitives":[
				{
					"attributes":{
						"POSITION":0,
						"NORMAL":1,
						"TEXCOORD_0":2,
						"COLOR_0":3
					},
					"indices":4,
					"material":0
				}
			]
		}
	],
	"textures":[
		{
			"sampler":0,
			"source":0
		},
		{
			"sampler":0,
			"source":1
		}
	],
	"images":[
		{
			"mimeType":"image/png",
			"name":"Bark_DeadTree_Normal",
			"uri":"Bark_DeadTree_Normal.png"
		},
		{
			"mimeType":"image/png",
			"name":"Bark_DeadTree",
			"uri":"Bark_DeadTree.png"
		}
	],
	"accessors":[
		{
			"bufferView":0,
			"componentType":5126,
			"count":8575,
			"max":[
				3.3627684116363525,
				12.435422897338867,
				3.5989503860473633
			],
			"min":[
				-4.59817361831665,
				-0.3355545997619629,
				-4.133494853973389
			],
			"type":"VEC3"
		},
		{
			"bufferView":1,
			"componentType":5126,
			"count":8575,
			"type":"VEC3"
		},
		{
			"bufferView":2,
			"componentType":5126,
			"count":8575,
			"type":"VEC2"
		},
		{
			"bufferView":3,
			"componentType":5126,
			"count":8575,
			"type":"VEC3"
		},
		{
			"bufferView":4,
			"componentType":5123,
			"count":17106,
			"type":"SCALAR"
		}
	],
	"bufferViews":[
		{
			"buffer":0,
			"byteLength":102900,
			"byteOffset":0,
			"target":34962
		},
		{
			"buffer":0,
			"byteLength":102900,
			"byteOffset":102900,
			"target":34962
		},
		{
			"buffer":0,
			"byteLength":68600,
			"byteOffset":205800,
			"target":34962
		},
		{
			"buffer":0,
			"byteLength":102900,
			"byteOffset":274400,
			"target":34962
		},
		{
			"buffer":0,
			"byteLength":34212,
			"byteOffset":377300,
			"target":34963
		}
	],
	"samplers":[
		{
			"magFilter":9729,
			"minFilter":9987
		}
	],
	"buffers":[
		{
			"byteLength":411512,
			"uri":"DeadTree_4.bin"
		}
	]
}
