{
	"asset":{
		"generator":"Khronos glTF Blender I/O v4.1.63",
		"version":"2.0"
	},
	"scene":0,
	"scenes":[
		{
			"name":"Scene",
			"nodes":[
				0
			]
		}
	],
	"nodes":[
		{
			"mesh":0,
			"name":"DeadTree_2"
		}
	],
	"materials":[
		{
			"doubleSided":true,
			"name":"Bark_DeadTree.002",
			"normalTexture":{
				"index":0
			},
			"pbrMetallicRoughness":{
				"baseColorTexture":{
					"index":1
				},
				"metallicFactor":0
			}
		}
	],
	"meshes":[
		{
			"name":"tree.043",
			"primitives":[
				{
					"attributes":{
						"POSITION":0,
						"NORMAL":1,
						"TEXCOORD_0":2,
						"COLOR_0":3
					},
					"indices":4,
					"material":0
				}
			]
		}
	],
	"textures":[
		{
			"sampler":0,
			"source":0
		},
		{
			"sampler":0,
			"source":1
		}
	],
	"images":[
		{
			"mimeType":"image/png",
			"name":"Bark_DeadTree_Normal",
			"uri":"Bark_DeadTree_Normal.png"
		},
		{
			"mimeType":"image/png",
			"name":"Bark_DeadTree",
			"uri":"Bark_DeadTree.png"
		}
	],
	"accessors":[
		{
			"bufferView":0,
			"componentType":5126,
			"count":9881,
			"max":[
				2.332343578338623,
				11.152676582336426,
				2.522876024246216
			],
			"min":[
				-4.397274017333984,
				-0.3355545997619629,
				-3.8556599617004395
			],
			"type":"VEC3"
		},
		{
			"bufferView":1,
			"componentType":5126,
			"count":9881,
			"type":"VEC3"
		},
		{
			"bufferView":2,
			"componentType":5126,
			"count":9881,
			"type":"VEC2"
		},
		{
			"bufferView":3,
			"componentType":5126,
			"count":9881,
			"type":"VEC3"
		},
		{
			"bufferView":4,
			"componentType":5123,
			"count":19671,
			"type":"SCALAR"
		}
	],
	"bufferViews":[
		{
			"buffer":0,
			"byteLength":118572,
			"byteOffset":0,
			"target":34962
		},
		{
			"buffer":0,
			"byteLength":118572,
			"byteOffset":118572,
			"target":34962
		},
		{
			"buffer":0,
			"byteLength":79048,
			"byteOffset":237144,
			"target":34962
		},
		{
			"buffer":0,
			"byteLength":118572,
			"byteOffset":316192,
			"target":34962
		},
		{
			"buffer":0,
			"byteLength":39342,
			"byteOffset":434764,
			"target":34963
		}
	],
	"samplers":[
		{
			"magFilter":9729,
			"minFilter":9987
		}
	],
	"buffers":[
		{
			"byteLength":474108,
			"uri":"DeadTree_2.bin"
		}
	]
}
